<svg version="1.1" id="Layer_1" xmlns="http://www.w3.org/2000/svg" xmlns:xlink="http://www.w3.org/1999/xlink" x="0px" y="0px"
	 width="100%" viewBox="0 0 2048 1980" enable-background="new 0 0 2048 1980" xml:space="preserve">
<path fill="#F4ABBA" opacity="1.000000" stroke="none" 
	d="
M0.999990,934.000000 
	C1.000000,908.645752 1.000000,883.291565 1.336779,857.804260 
	C2.113645,856.836609 2.809597,856.044312 2.955287,855.161133 
	C5.015423,842.673828 6.707431,830.117981 9.089554,817.693970 
	C11.327236,806.023193 14.274812,794.488586 16.894764,782.961243 
	C21.484547,783.927856 25.236570,784.943848 29.055944,785.480042 
	C40.504673,787.087097 51.948730,788.870667 63.457184,789.850403 
	C69.473145,790.362549 75.714134,789.885681 81.686707,788.872375 
	C91.054008,787.282959 100.440811,785.388184 109.513451,782.620117 
	C116.347122,780.535217 122.970169,777.353638 129.210052,773.818420 
	C140.216141,767.582947 150.500397,756.176880 148.794266,742.022522 
	C148.004456,735.470032 145.254303,729.093689 142.956985,722.796448 
	C138.919861,711.730225 130.963715,703.078247 123.478981,694.463745 
	C117.771919,687.895203 109.819641,683.325562 103.180595,677.507874 
	C91.736320,667.479492 78.708916,660.381958 64.300476,655.781006 
	C60.343998,654.517517 58.802135,652.764587 60.702572,648.683899 
	C64.216179,641.139648 67.484238,633.481201 70.987793,625.932068 
	C76.664192,613.701233 82.149139,601.367249 88.287247,589.369629 
	C92.696625,580.751038 97.803329,572.458679 103.037231,564.302002 
	C107.477341,557.382324 112.399895,550.754944 117.381042,544.205200 
	C121.378624,538.948792 125.692810,533.923035 130.033798,528.940674 
	C134.425003,523.900757 138.520340,518.428101 143.637512,514.233459 
	C153.055923,506.513000 162.876358,499.212677 173.007935,492.454865 
	C181.058731,487.084930 189.449448,481.872284 198.358292,478.223236 
	C211.870483,472.688599 225.475906,467.187683 240.368179,465.692017 
	C252.795425,464.443939 265.061035,460.651978 277.462921,460.306122 
	C295.772797,459.795471 314.198944,460.658051 332.464325,462.229034 
	C347.149719,463.492126 361.719513,466.405670 376.248932,469.083984 
	C389.104858,471.453827 401.904175,474.225220 414.599670,477.343811 
	C426.766357,480.332550 438.824799,483.804779 450.824921,487.416443 
	C462.938904,491.062378 475.079590,494.719757 486.925079,499.133087 
	C502.817078,505.054077 518.480164,511.601044 534.154175,518.090454 
	C541.507202,521.134766 548.711609,524.557800 555.878235,528.026428 
	C560.949280,530.480774 565.819580,533.346619 570.822205,535.946411 
	C582.972412,542.260864 595.243164,548.351074 607.278259,554.876587 
	C614.963989,559.043884 622.326355,563.809326 629.814575,568.338318 
	C636.681458,572.491516 643.527344,576.679565 650.373779,580.866516 
	C655.878052,584.232666 661.369385,587.620056 666.889893,591.368286 
	C666.424072,593.127563 666.120972,594.619629 665.418213,595.890625 
	C651.993103,620.172241 645.687622,645.728027 650.903564,673.531982 
	C658.328918,713.113342 680.127197,741.710205 716.294495,759.234802 
	C733.228577,767.440125 751.402893,770.186951 770.189575,770.400391 
	C776.052124,779.866455 781.768066,789.037354 787.573914,798.150940 
	C807.406799,829.282837 827.271301,860.394531 847.032715,891.823120 
	C834.772461,907.244446 824.750000,923.715942 815.620483,940.913086 
	C814.111633,940.546997 812.990051,940.231445 811.854126,939.980591 
	C760.515442,928.642883 709.178711,917.295776 657.833313,905.988159 
	C643.949707,902.930603 630.039246,899.994568 615.888794,896.738464 
	C599.376221,849.827209 566.541565,822.308350 517.825317,816.554016 
	C479.113983,811.981445 445.647644,825.443604 419.449402,854.936096 
	C379.808411,899.561462 381.270142,967.387451 422.597107,1010.321106 
	C458.669769,1047.796265 512.495789,1056.743408 558.873291,1033.147827 
	C571.057251,1026.948853 581.288330,1018.295837 591.483765,1009.015442 
	C635.373474,1018.709534 678.866516,1028.409424 722.371399,1038.055908 
	C746.554199,1043.418091 770.756775,1048.691162 795.008423,1054.428467 
	C795.885315,1062.270508 796.203369,1069.787231 797.643860,1077.082275 
	C799.664734,1087.316284 802.520325,1097.385620 804.652588,1107.616943 
	C803.106995,1108.296143 801.864685,1108.784424 800.757996,1109.486328 
	C779.195251,1123.165405 757.668457,1136.901123 736.081848,1150.542358 
	C731.357849,1153.527466 726.432068,1156.193359 721.242126,1159.061035 
	C719.798950,1158.714233 718.682678,1158.379028 717.631287,1157.901245 
	C694.682312,1147.471680 670.829468,1144.250000 646.023743,1149.084229 
	C583.205200,1161.326416 542.279663,1222.986206 555.392761,1285.547607 
	C566.725159,1339.613525 614.127747,1377.795654 669.693420,1377.069824 
	C706.816040,1376.585083 736.906616,1361.195435 759.662415,1331.978149 
	C777.032349,1309.676147 784.407959,1284.041870 783.532837,1255.910278 
	C784.664612,1255.710327 785.541565,1255.627930 786.203186,1255.207153 
	C812.553711,1238.442749 838.884644,1221.647583 865.501343,1205.026611 
	C870.021362,1208.904419 874.035828,1212.911377 878.540405,1216.258911 
	C888.628296,1223.755249 898.960144,1230.923462 909.167236,1238.627686 
	C909.015991,1240.018188 908.968567,1241.023804 908.752930,1241.992065 
	C900.384338,1279.578247 891.958008,1317.151611 883.648376,1354.750732 
	C881.575500,1364.130249 879.872803,1373.591675 877.721436,1383.243042 
	C857.206177,1389.701904 839.924011,1400.704956 826.023804,1416.588745 
	C801.066589,1445.107666 792.119324,1478.376953 799.020508,1515.502197 
	C804.000183,1542.290405 817.284546,1564.707153 838.502563,1581.960327 
	C862.614441,1601.566650 890.242859,1610.788086 921.426331,1608.048706 
	C952.740234,1605.297974 978.810730,1591.989380 999.399170,1568.205566 
	C1029.530273,1533.398071 1034.226807,1486.706177 1017.402039,1446.998901 
	C1011.066833,1432.047241 1001.085083,1419.645508 990.011841,1407.625732 
	C997.387878,1373.995850 1004.791931,1340.775635 1012.095947,1307.533325 
	C1014.908264,1294.733643 1017.493103,1281.883789 1020.636597,1269.015259 
	C1026.894653,1268.797974 1032.758667,1269.095337 1038.488525,1268.354370 
	C1053.266846,1266.443604 1067.985962,1264.073853 1082.904297,1262.206177 
	C1095.635010,1282.374512 1108.155029,1302.246582 1120.752563,1322.069214 
	C1148.539307,1365.792725 1176.335205,1409.510254 1204.210083,1453.177490 
	C1207.943359,1459.025757 1212.156250,1464.567993 1216.072632,1470.594238 
	C1206.536621,1489.024536 1202.194702,1508.245850 1202.906616,1528.668579 
	C1203.893311,1556.976440 1213.800781,1581.905396 1233.144653,1602.298096 
	C1261.059448,1631.726318 1295.463623,1644.370605 1336.069092,1638.119019 
	C1387.846802,1630.147339 1429.142334,1587.635864 1432.752686,1532.433594 
	C1435.346680,1492.771973 1420.711548,1459.620728 1389.718628,1434.532104 
	C1370.046509,1418.607910 1347.376343,1409.684692 1321.605469,1409.959839 
	C1318.302490,1409.995117 1314.994751,1409.593262 1311.746826,1409.072998 
	C1311.322510,1407.541504 1311.018677,1406.217896 1310.332397,1405.137085 
	C1295.706787,1382.107788 1281.027344,1359.112793 1266.380615,1336.096802 
	C1238.873901,1292.872559 1211.381470,1249.639404 1183.930054,1206.093750 
	C1200.661987,1189.015625 1215.045288,1170.482666 1227.260498,1150.140137 
	C1249.662231,1155.202271 1271.685913,1160.174316 1293.735352,1165.028687 
	C1312.864990,1169.240112 1332.023804,1173.318237 1351.406738,1177.687744 
	C1360.418091,1204.677124 1376.403931,1225.966675 1400.369263,1240.840820 
	C1422.909058,1254.830200 1447.443970,1261.125977 1474.041504,1257.946655 
	C1498.148315,1255.064941 1519.472656,1245.821899 1537.802734,1229.779053 
	C1539.209106,1228.548096 1541.156738,1227.935669 1543.014648,1227.363770 
	C1544.434326,1228.331665 1545.872803,1228.758545 1546.919800,1229.646851 
	C1552.760742,1234.602051 1558.383057,1239.820801 1564.316895,1244.659180 
	C1571.608276,1250.604370 1579.310913,1256.052246 1586.506714,1262.106201 
	C1593.812622,1268.253052 1600.652222,1274.950439 1607.820923,1281.265137 
	C1612.771240,1285.625488 1618.349854,1289.340088 1622.926880,1294.044556 
	C1639.845337,1311.434204 1656.476562,1329.103638 1673.186768,1346.695190 
	C1677.571045,1351.310669 1682.069824,1355.843506 1686.129761,1360.734863 
	C1692.823120,1368.798950 1699.277710,1377.065796 1705.689331,1385.358154 
	C1710.450684,1391.516357 1715.226562,1397.687622 1719.565063,1404.142578 
	C1727.103394,1415.358276 1734.319702,1426.790527 1741.650513,1438.145264 
	C1748.317627,1448.471924 1755.390625,1458.567993 1761.491211,1469.220215 
	C1767.938477,1480.478027 1773.812256,1492.103882 1779.271362,1503.877319 
	C1785.579834,1517.483032 1791.724487,1531.218750 1796.895020,1545.282349 
	C1801.650879,1558.217529 1805.703979,1571.506104 1808.780029,1584.933594 
	C1811.205200,1595.519653 1811.291870,1606.617920 1813.102295,1617.373535 
	C1815.806763,1633.440796 1813.969604,1649.519531 1811.439453,1665.103027 
	C1808.974731,1680.284668 1803.433350,1695.154541 1797.726074,1709.560303 
	C1793.443726,1720.369141 1786.850708,1730.278198 1781.092163,1740.478027 
	C1779.031982,1744.127319 1776.442993,1747.483643 1774.023560,1750.923096 
	C1769.535156,1757.303833 1765.241455,1763.843872 1760.396973,1769.944702 
	C1756.427368,1774.944214 1751.806641,1779.431274 1747.419067,1784.093140 
	C1741.327271,1790.565796 1735.371826,1797.182495 1729.009644,1803.380127 
	C1722.727295,1809.500000 1715.999146,1815.161621 1709.488892,1821.048828 
	C1703.029541,1826.890015 1696.597656,1832.761597 1690.309204,1838.478516 
	C1686.845825,1834.703247 1684.058472,1831.530273 1681.126465,1828.497070 
	C1675.131714,1822.295532 1669.569092,1815.532959 1662.886353,1810.177002 
	C1655.067993,1803.910522 1646.313477,1798.790405 1637.827637,1793.388916 
	C1634.068481,1790.996216 1630.182007,1788.439087 1625.986450,1787.168945 
	C1615.837646,1784.096802 1605.580688,1781.132080 1595.161987,1779.278931 
	C1586.569214,1777.750488 1577.320923,1778.486084 1569.956055,1783.244385 
	C1557.592407,1791.232666 1552.863647,1804.050781 1552.075195,1818.286133 
	C1551.651123,1825.943481 1552.390015,1833.668091 1551.910522,1841.318848 
	C1551.143433,1853.554932 1555.041138,1865.013794 1558.957153,1875.966064 
	C1563.689087,1889.200195 1571.026733,1901.545410 1577.747559,1913.999756 
	C1579.751709,1917.713989 1578.940796,1919.341309 1575.835449,1921.023193 
	C1571.911133,1923.148438 1567.932129,1925.181519 1564.087646,1927.443115 
	C1555.928711,1932.242798 1548.008667,1937.475098 1539.680786,1941.953735 
	C1530.372803,1946.959717 1520.845581,1951.605591 1511.188354,1955.901489 
	C1499.325806,1961.178223 1487.492432,1966.756470 1475.160278,1970.673828 
	C1463.219604,1974.466797 1450.657227,1976.296387 1438.390991,1979.089722 
	C1437.812256,1979.221436 1437.458496,1980.340576 1437.000000,1981.000000 
	C1415.979126,1981.000000 1394.958130,1981.000000 1373.801758,1980.679199 
	C1368.603516,1978.905762 1363.528564,1977.493530 1358.480347,1975.991333 
	C1350.359009,1973.574951 1342.150024,1971.393677 1334.179321,1968.549194 
	C1328.475708,1966.513916 1323.015381,1963.725098 1317.600220,1960.970215 
	C1308.965088,1956.577393 1300.176514,1952.384644 1291.974731,1947.270264 
	C1283.568848,1942.028442 1275.682495,1935.922607 1267.771606,1929.927246 
	C1261.634766,1925.276367 1255.643921,1920.399780 1249.895386,1915.278687 
	C1244.450684,1910.428223 1239.415283,1905.118896 1234.182495,1900.029297 
	C1226.610107,1892.664062 1218.802856,1885.524048 1211.515747,1877.887329 
	C1206.438721,1872.566650 1202.107056,1866.539429 1197.368774,1860.889771 
	C1189.619019,1851.649170 1181.620728,1842.609619 1174.093384,1833.192383 
	C1169.359253,1827.270020 1165.412109,1820.725830 1160.898804,1814.618042 
	C1154.435181,1805.871094 1147.556030,1797.424561 1141.272949,1788.553223 
	C1136.350952,1781.603516 1131.894165,1774.305420 1127.533691,1766.981567 
	C1120.225220,1754.706055 1112.952393,1742.400269 1106.057007,1729.890991 
	C1100.802246,1720.358276 1096.121826,1710.507324 1091.247681,1700.767090 
	C1086.300781,1690.881348 1081.402466,1680.971069 1076.538452,1671.044312 
	C1074.631104,1667.151733 1072.695801,1663.256714 1071.084473,1659.238037 
	C1066.981567,1649.005371 1062.881714,1638.765503 1059.097290,1628.412598 
	C1053.537231,1613.202026 1048.139893,1597.929321 1042.884521,1582.610596 
	C1038.241821,1569.077881 1033.816895,1555.468994 1029.445190,1541.845703 
	C1027.871948,1536.942627 1026.734131,1531.899658 1025.159424,1526.033447 
	C1024.436279,1527.438843 1024.164062,1527.813599 1024.039673,1528.232178 
	C1020.696289,1539.474731 1017.452454,1550.747559 1014.006531,1561.958496 
	C1011.836914,1569.017212 1009.372375,1575.985474 1007.033020,1582.991943 
	C1003.023438,1595.000488 999.343323,1607.133057 994.898987,1618.978760 
	C990.691833,1630.192139 985.719788,1641.120605 981.013062,1652.143921 
	C974.925110,1666.402100 968.985107,1680.729980 962.555054,1694.833496 
	C958.802979,1703.063232 954.351685,1710.987061 949.979126,1718.918579 
	C942.594482,1732.313965 935.168701,1745.691040 927.467407,1758.905273 
	C923.659912,1765.438477 919.137085,1771.551270 915.051147,1777.926880 
	C910.873169,1784.446289 907.083191,1791.228271 902.664062,1797.575439 
	C898.235352,1803.936401 893.232483,1809.897217 888.493896,1816.043213 
	C881.814026,1824.707642 875.253113,1833.466553 868.440247,1842.024780 
	C862.400879,1849.611450 856.178284,1857.057861 849.866638,1864.420532 
	C844.255615,1870.965942 838.570190,1877.462891 832.621704,1883.698853 
	C827.652344,1888.908203 822.221313,1893.674561 817.055298,1898.699341 
	C810.953430,1904.634033 805.210510,1910.976807 798.775085,1916.519409 
	C791.223755,1923.023560 783.263428,1929.091553 775.169556,1934.916748 
	C766.857971,1940.898193 758.420654,1946.784668 749.593872,1951.953613 
	C733.786987,1961.209961 717.369263,1969.285522 699.555664,1974.062378 
	C692.870972,1975.854858 686.096985,1977.313110 679.399414,1979.060181 
	C678.492615,1979.296753 677.794678,1980.333618 677.000000,1981.000000 
	C655.979126,1981.000000 634.958191,1981.000000 613.801819,1980.678223 
	C609.845825,1979.238525 606.052368,1978.015381 602.199646,1977.022705 
	C591.613892,1974.295166 580.870056,1972.093750 570.444092,1968.860840 
	C561.922119,1966.218506 553.698486,1962.552979 545.471558,1959.039307 
	C538.559509,1956.087280 531.754211,1952.856812 525.042908,1949.469727 
	C513.881287,1943.836426 502.730865,1938.164307 491.777191,1932.142090 
	C485.752747,1928.829956 480.227020,1924.622559 474.307373,1921.103271 
	C470.938080,1919.099976 470.005127,1917.477051 472.515991,1913.771362 
	C481.479797,1900.542236 487.941071,1886.143799 492.775421,1870.845093 
	C497.114838,1857.112671 498.679840,1843.154419 498.937073,1828.940430 
	C499.013977,1824.691406 498.948639,1820.265137 497.869141,1816.207153 
	C495.771576,1808.322388 494.039276,1800.002808 490.096832,1793.026733 
	C484.371796,1782.896606 474.008606,1779.244263 462.666626,1779.044434 
	C448.284760,1778.790894 434.700348,1782.659180 421.891602,1788.755859 
	C413.045654,1792.966553 404.326172,1797.772217 396.394257,1803.484131 
	C387.951630,1809.563965 380.286560,1816.795410 372.701996,1823.968140 
	C368.094055,1828.325928 364.281281,1833.524292 360.124329,1838.329834 
	C357.387848,1836.080200 355.048370,1834.279419 352.846619,1832.323730 
	C346.244049,1826.459229 339.678772,1820.552368 333.129883,1814.627930 
	C326.748657,1808.855347 320.008636,1803.413574 314.134674,1797.160767 
	C304.222046,1786.608521 294.672516,1775.695435 285.357117,1764.609131 
	C280.175934,1758.442871 275.407501,1751.851440 271.123718,1745.030273 
	C266.368469,1737.458374 262.293793,1729.451172 258.080688,1721.549316 
	C254.927994,1715.636108 251.544128,1709.774902 249.146774,1703.550293 
	C246.733688,1697.284668 246.040710,1690.339233 243.484924,1684.149536 
	C237.759079,1670.283203 237.077820,1655.582764 236.268707,1641.078613 
	C235.612061,1629.307739 236.777145,1617.339355 238.151260,1605.577393 
	C239.578232,1593.362915 241.512192,1581.109009 244.545700,1569.209106 
	C247.499054,1557.623657 251.731003,1546.309448 256.124054,1535.160767 
	C260.814270,1523.258423 265.768311,1511.387085 271.655701,1500.046631 
	C280.103729,1483.773682 289.091827,1467.744385 298.624756,1452.083008 
	C306.132874,1439.747925 314.843933,1428.147339 322.955017,1416.176025 
	C325.873627,1411.868408 328.376740,1407.265625 331.461182,1403.086792 
	C338.168823,1393.999146 345.112427,1385.085083 351.991272,1376.124390 
	C356.165161,1370.687256 360.225861,1365.149536 364.654572,1359.925781 
	C368.873352,1354.949829 373.506836,1350.325562 377.952667,1345.541748 
	C386.651398,1336.182129 395.195099,1326.672363 404.083954,1317.496948 
	C413.641022,1307.631836 423.484528,1298.042480 433.277496,1288.408447 
	C437.091461,1284.656250 440.992035,1280.973999 445.058014,1277.499756 
	C452.932526,1270.771362 460.890167,1264.136475 468.927887,1257.603760 
	C478.812256,1249.570068 488.761200,1241.613525 498.780121,1233.748169 
	C507.532959,1226.876953 516.360901,1220.097290 525.271545,1213.432251 
	C530.979004,1209.163086 536.819397,1205.059448 542.742737,1201.094604 
	C548.641846,1197.145752 554.718994,1193.463013 561.928772,1188.896851 
	C553.248169,1189.311646 546.047119,1189.989990 538.851440,1189.937134 
	C516.925720,1189.776245 494.992981,1189.615479 473.080597,1188.908325 
	C456.459564,1188.372070 439.861816,1187.055786 423.260895,1185.976807 
	C414.909546,1185.434082 406.512238,1185.074585 398.244690,1183.878906 
	C382.014252,1181.531372 365.841125,1178.766479 349.680359,1175.965820 
	C337.247345,1173.811401 324.845490,1171.456787 312.479492,1168.946167 
	C307.753296,1167.986694 303.169830,1166.330322 298.513763,1165.018311 
	C283.667297,1160.834595 268.746582,1156.895386 253.995285,1152.399902 
	C245.249649,1149.734619 236.791992,1146.134888 228.163574,1143.071777 
	C217.128860,1139.154541 205.908142,1135.717896 195.036499,1131.397461 
	C184.960159,1127.393188 175.214828,1122.547607 165.366165,1117.980957 
	C155.944977,1113.612671 146.428757,1109.412476 137.235855,1104.600464 
	C130.090698,1100.860352 123.337822,1096.358276 116.484520,1092.076538 
	C108.411598,1087.032715 100.065887,1082.329224 92.485870,1076.618774 
	C84.251625,1070.415527 76.655205,1063.342285 68.979538,1056.427612 
	C62.377613,1050.480103 55.492203,1044.702026 49.759632,1037.973511 
	C43.339691,1030.438477 38.325676,1021.725098 32.248791,1013.873596 
	C23.636944,1002.746826 18.281212,989.941711 13.191113,977.111267 
	C7.954017,963.910156 5.108173,949.945740 2.922924,935.890320 
	C2.812138,935.177795 1.664734,934.626404 0.999990,934.000000 
z"/>
<path fill="#F4ABBA" opacity="1.000000" stroke="none" 
	d="
M933.000000,0.999995 
	C940.687561,1.000000 948.375183,1.000000 956.531372,1.438828 
	C957.333252,6.288353 957.282898,10.769229 958.074585,15.096042 
	C960.106995,26.203337 961.519653,37.571972 965.052124,48.214771 
	C968.511414,58.637009 974.028992,68.422585 979.100342,78.251701 
	C985.822632,91.280479 995.232178,102.041527 1007.602905,110.126778 
	C1018.132690,117.008820 1028.951904,117.645828 1039.886841,111.523651 
	C1047.949097,107.009850 1055.072021,101.320839 1060.263306,93.416473 
	C1064.992065,86.216324 1071.100830,79.729469 1074.725464,72.043541 
	C1079.811279,61.259121 1082.852905,49.531509 1087.335571,38.436249 
	C1092.242920,26.289822 1092.201294,13.693980 1092.000000,1.000000 
	C1100.020874,1.000000 1108.041870,1.000000 1116.197998,1.342974 
	C1125.101318,3.123882 1133.867310,4.574042 1142.637695,5.996819 
	C1155.121582,8.022012 1167.738525,9.448562 1180.056030,12.212376 
	C1191.158447,14.703588 1202.057373,18.297791 1212.819092,22.055422 
	C1223.253174,25.698641 1233.804932,29.390694 1243.561890,34.484554 
	C1254.387573,40.136440 1264.656006,47.000019 1274.632935,54.087952 
	C1282.638428,59.775482 1290.430908,66.019615 1297.245483,73.055382 
	C1304.255127,80.292412 1310.490234,88.436211 1316.112305,96.821426 
	C1323.189209,107.376114 1330.017578,118.225754 1335.612549,129.607147 
	C1340.518188,139.586426 1343.805054,150.397324 1347.377686,160.985779 
	C1350.869019,171.333878 1354.432983,181.725723 1356.840698,192.353073 
	C1359.558228,204.348816 1361.093506,216.617355 1363.010864,228.788086 
	C1365.085693,241.958176 1367.728516,255.093155 1368.817017,268.350708 
	C1370.222290,285.469269 1370.760010,302.691010 1370.887695,319.874146 
	C1371.035645,339.790680 1370.495117,359.718109 1369.936401,379.631897 
	C1369.622559,390.817230 1368.992676,402.015839 1367.920288,413.152161 
	C1366.591675,426.949615 1365.145508,440.770111 1362.867065,454.433411 
	C1359.646973,473.743469 1355.904175,492.979340 1351.838867,512.131042 
	C1348.964355,525.672119 1345.559326,539.129272 1341.712524,552.427673 
	C1337.207031,568.003052 1331.965210,583.365356 1327.043213,598.820374 
	C1326.361084,600.962341 1325.703003,603.112427 1324.997314,605.246582 
	C1322.791382,611.917236 1320.584961,618.587891 1318.346558,625.247681 
	C1316.283813,631.384644 1314.179443,637.507690 1312.026367,643.834167 
	C1314.144897,642.060486 1315.909912,640.483643 1317.777954,639.040100 
	C1321.396973,636.243652 1325.108887,633.567322 1328.719482,630.760132 
	C1336.648926,624.595215 1344.380737,618.162231 1352.497314,612.256409 
	C1358.576904,607.832642 1365.193604,604.155029 1371.458862,599.976929 
	C1380.315918,594.070435 1388.956421,587.833618 1397.901123,582.066101 
	C1405.721558,577.023560 1413.868774,572.490601 1421.808350,567.629272 
	C1429.686768,562.805359 1437.271973,557.458679 1445.371948,553.050781 
	C1456.697388,546.887634 1468.464478,541.541809 1479.887329,535.550171 
	C1490.915771,529.765442 1501.799194,523.799072 1513.628418,519.633057 
	C1522.523926,516.500244 1531.013794,512.234070 1539.784424,508.722565 
	C1549.448608,504.853424 1559.127808,500.977753 1568.980225,497.634308 
	C1582.201904,493.147430 1595.523438,488.917755 1608.936768,485.043427 
	C1621.615234,481.381439 1634.469971,478.330444 1647.242310,474.992615 
	C1652.234863,473.687897 1657.149292,471.957825 1662.213379,471.078827 
	C1673.570435,469.107483 1685.000366,467.557129 1696.398071,465.817993 
	C1706.845459,464.223877 1717.240479,461.917542 1727.747192,461.168823 
	C1741.953125,460.156433 1756.242798,460.188416 1770.498901,460.076202 
	C1775.562134,460.036377 1780.675903,460.606659 1785.689453,461.391754 
	C1794.172241,462.720123 1802.562988,464.639038 1811.048096,465.948059 
	C1822.421631,467.702637 1833.395264,470.663818 1843.896118,475.405792 
	C1848.999023,477.710205 1854.344238,479.515594 1859.318848,482.057556 
	C1866.926514,485.945038 1874.872192,489.520721 1881.654297,494.592651 
	C1891.831055,502.203003 1901.408325,510.691162 1910.697266,519.386169 
	C1917.292969,525.559998 1923.251953,532.477051 1929.012085,539.460693 
	C1933.727905,545.178162 1937.836182,551.411682 1942.021973,557.547485 
	C1947.127686,565.031799 1952.587646,572.351868 1956.892944,580.286438 
	C1963.154907,591.827209 1968.624878,603.804871 1974.240479,615.686951 
	C1979.291382,626.374084 1984.112549,637.170471 1988.976196,647.945251 
	C1991.062378,652.566833 1990.022949,653.999451 1985.484131,655.920105 
	C1976.271240,659.818787 1966.580322,663.157043 1958.310181,668.589478 
	C1943.526123,678.300354 1929.881470,689.384583 1919.058960,703.973511 
	C1911.892090,713.634644 1905.920898,723.368652 1902.440063,734.872925 
	C1899.629517,744.162231 1901.055298,752.585754 1906.071533,760.443970 
	C1911.401123,768.792969 1919.655884,773.973145 1928.384033,777.867065 
	C1935.500366,781.041931 1943.207642,783.045959 1950.810425,784.935547 
	C1959.125244,787.001953 1967.557495,789.134277 1976.052368,789.813904 
	C1989.511230,790.890686 2002.968994,789.881958 2016.164307,786.458008 
	C2021.563110,785.057129 2027.086914,784.138367 2033.340088,782.836670 
	C2035.293457,792.505981 2036.494141,802.025330 2039.213135,811.089233 
	C2043.540894,825.516235 2044.634399,840.406799 2047.076050,855.106384 
	C2047.195312,855.824341 2048.335205,856.372681 2049.000000,857.000000 
	C2049.000000,882.687561 2049.000000,908.375122 2048.674316,934.201050 
	C2047.899780,935.331604 2047.234253,936.282837 2047.037476,937.322754 
	C2045.893066,943.370850 2045.414062,949.603577 2043.682495,955.470642 
	C2038.684937,972.403625 2033.504395,989.348022 2023.897705,1004.401917 
	C2017.776123,1013.994324 2011.676758,1023.676086 2004.643921,1032.589111 
	C1998.547241,1040.315674 1991.257935,1047.123413 1984.287842,1054.130493 
	C1980.154175,1058.286011 1975.843262,1062.333862 1971.206055,1065.902832 
	C1965.256958,1070.481445 1958.920166,1074.559448 1952.713867,1078.799438 
	C1945.483154,1083.739502 1938.358643,1088.856812 1930.919312,1093.463135 
	C1923.392334,1098.123657 1915.632812,1102.435181 1907.800903,1106.569702 
	C1898.432861,1111.515137 1889.021606,1116.425659 1879.367554,1120.769775 
	C1869.645874,1125.144165 1859.641968,1128.905396 1849.690186,1132.750366 
	C1840.251221,1136.397095 1830.750488,1139.890625 1821.220703,1143.293823 
	C1810.046753,1147.284302 1798.909790,1151.421387 1787.577148,1154.911621 
	C1775.445923,1158.647827 1763.179810,1162.014282 1750.837402,1164.979980 
	C1735.613281,1168.638306 1720.309448,1172.028076 1704.930298,1174.958862 
	C1688.990234,1177.996460 1672.966919,1180.697021 1656.890503,1182.888550 
	C1643.278198,1184.744263 1629.554199,1185.866821 1615.850586,1186.942993 
	C1599.942871,1188.192383 1584.003540,1189.037109 1568.029419,1189.660645 
	C1568.400879,1187.674072 1568.890991,1186.099121 1569.229614,1184.492188 
	C1571.790527,1172.336792 1576.077148,1160.240601 1576.533081,1148.003296 
	C1577.899048,1111.333740 1564.710938,1080.030273 1536.564575,1056.188354 
	C1504.477417,1029.008301 1467.625854,1021.620483 1427.239746,1033.466919 
	C1407.140259,1039.362793 1390.389282,1050.897095 1375.774048,1065.772705 
	C1374.230347,1065.137573 1372.976074,1064.684326 1371.684692,1064.397095 
	C1342.529663,1057.907837 1313.378540,1051.401367 1284.208008,1044.982666 
	C1274.651245,1042.879761 1265.042480,1041.013916 1255.369751,1038.577148 
	C1255.018799,1031.462036 1255.025024,1024.785889 1254.441040,1018.161743 
	C1252.812500,999.689514 1248.851074,981.677917 1243.445068,963.960083 
	C1274.640381,944.272522 1305.520508,924.695496 1336.357422,905.050964 
	C1339.828125,902.839966 1343.055298,900.246704 1346.727539,897.918274 
	C1393.976196,921.890076 1448.579956,912.978455 1484.567871,874.671875 
	C1504.425659,853.534729 1514.566406,828.209900 1515.207520,798.717224 
	C1515.889648,767.336853 1505.957764,740.223145 1484.804199,717.674500 
	C1457.967529,689.068176 1424.357788,676.943970 1385.371460,682.035828 
	C1349.983643,686.657654 1322.415771,704.519958 1303.187500,734.648254 
	C1290.108521,755.141418 1284.547974,777.862671 1284.545410,802.121216 
	C1283.744873,802.341187 1283.246826,802.469055 1282.833862,802.731201 
	C1249.664673,823.783142 1216.496948,844.837585 1183.362793,865.945068 
	C1182.317139,866.611145 1181.625610,867.832947 1180.499756,868.638855 
	C1177.744995,866.265991 1175.301636,864.000244 1172.766724,861.842041 
	C1156.414185,847.920532 1138.088745,837.123169 1118.859619,827.451904 
	C1124.271118,802.888000 1129.620239,778.716614 1134.991821,754.550232 
	C1144.814087,710.359985 1154.771118,666.198975 1164.386841,621.963806 
	C1166.530029,612.104065 1167.493286,601.987854 1169.281982,591.765137 
	C1192.094116,584.842224 1211.126831,572.532043 1225.699951,554.219666 
	C1250.846558,522.620728 1258.461182,486.974152 1246.957764,448.037079 
	C1232.994141,400.771667 1192.590088,369.798828 1145.235840,366.320282 
	C1108.777954,363.642151 1077.610840,376.420380 1052.280884,403.039520 
	C1020.463379,436.476532 1012.510986,489.430817 1032.881226,530.911560 
	C1039.736694,544.871582 1049.190430,556.755249 1059.938232,568.074951 
	C1058.252319,573.356567 1056.244629,578.167419 1055.122803,583.176636 
	C1044.395874,631.072144 1033.815796,679.000549 1023.200256,726.920959 
	C1017.155518,754.208069 1011.123291,781.497925 1004.664795,808.874756 
	C982.217407,811.089844 960.966492,816.506226 940.097290,823.726135 
	C915.619080,785.077454 891.264099,746.766113 866.917358,708.109741 
	C875.822815,689.639709 879.671326,670.625854 879.211914,650.312317 
	C878.732422,629.112366 872.650574,609.879822 861.374084,592.419678 
	C828.800720,541.984131 765.754944,526.356567 713.604980,551.236694 
	C711.863647,552.067505 709.859558,552.347656 707.988037,552.459595 
	C706.997925,547.643799 706.000122,543.252380 704.996887,538.862183 
	C702.377869,527.401306 699.648376,515.964355 697.164551,504.474243 
	C694.330444,491.363342 691.293335,478.274689 689.114807,465.049469 
	C686.628662,449.956512 684.622620,434.761017 683.083191,419.541809 
	C681.332703,402.236206 679.563538,384.871399 679.193237,367.502655 
	C678.726440,345.607330 679.504272,323.677856 680.062256,301.771210 
	C680.385254,289.087524 680.880615,276.375702 682.112366,263.756012 
	C683.630432,248.204208 685.213440,232.582596 688.199646,217.270248 
	C691.647766,199.589096 696.387939,182.139648 701.098206,164.733322 
	C703.471069,155.964798 706.734985,147.400070 710.131226,138.958511 
	C712.519104,133.023270 715.574585,127.317200 718.749084,121.746521 
	C724.392090,111.844185 729.450928,101.419266 736.408813,92.504463 
	C744.903198,81.621231 754.882507,71.849281 764.660034,62.035549 
	C769.459106,57.218746 774.859619,52.734863 780.679993,49.259258 
	C791.658569,42.703465 802.880005,36.427155 814.481445,31.077864 
	C826.080017,25.729919 838.087952,21.099800 850.251770,17.201126 
	C860.191040,14.015454 870.602722,12.270093 880.845764,10.076667 
	C887.972046,8.550645 895.126770,7.045034 902.341980,6.073942 
	C912.059570,4.766063 921.850708,4.009586 931.596436,2.894802 
	C932.129517,2.833821 932.535034,1.657267 933.000000,0.999995 
z"/>
<path fill="#000000" opacity="1.000000" stroke="none" 
	d="
M2049.000000,856.531311 
	C2048.335205,856.372681 2047.195312,855.824341 2047.076050,855.106384 
	C2044.634399,840.406799 2043.540894,825.516235 2039.213135,811.089233 
	C2036.494141,802.025330 2035.293457,792.505981 2033.340088,782.836670 
	C2027.086914,784.138367 2021.563110,785.057129 2016.164307,786.458008 
	C2002.968994,789.881958 1989.511230,790.890686 1976.052368,789.813904 
	C1967.557495,789.134277 1959.125244,787.001953 1950.810425,784.935547 
	C1943.207642,783.045959 1935.500366,781.041931 1928.384033,777.867065 
	C1919.655884,773.973145 1911.401123,768.792969 1906.071533,760.443970 
	C1901.055298,752.585754 1899.629517,744.162231 1902.440063,734.872925 
	C1905.920898,723.368652 1911.892090,713.634644 1919.058960,703.973511 
	C1929.881470,689.384583 1943.526123,678.300354 1958.310181,668.589478 
	C1966.580322,663.157043 1976.271240,659.818787 1985.484131,655.920105 
	C1990.022949,653.999451 1991.062378,652.566833 1988.976196,647.945251 
	C1984.112549,637.170471 1979.291382,626.374084 1974.240479,615.686951 
	C1968.624878,603.804871 1963.154907,591.827209 1956.892944,580.286438 
	C1952.587646,572.351868 1947.127686,565.031799 1942.021973,557.547485 
	C1937.836182,551.411682 1933.727905,545.178162 1929.012085,539.460693 
	C1923.251953,532.477051 1917.292969,525.559998 1910.697266,519.386169 
	C1901.408325,510.691162 1891.831055,502.203003 1881.654297,494.592651 
	C1874.872192,489.520721 1866.926514,485.945038 1859.318848,482.057556 
	C1854.344238,479.515594 1848.999023,477.710205 1843.896118,475.405792 
	C1833.395264,470.663818 1822.421631,467.702637 1811.048096,465.948059 
	C1802.562988,464.639038 1794.172241,462.720123 1785.689453,461.391754 
	C1780.675903,460.606659 1775.562134,460.036377 1770.498901,460.076202 
	C1756.242798,460.188416 1741.953125,460.156433 1727.747192,461.168823 
	C1717.240479,461.917542 1706.845459,464.223877 1696.398071,465.817993 
	C1685.000366,467.557129 1673.570435,469.107483 1662.213379,471.078827 
	C1657.149292,471.957825 1652.234863,473.687897 1647.242310,474.992615 
	C1634.469971,478.330444 1621.615234,481.381439 1608.936768,485.043427 
	C1595.523438,488.917755 1582.201904,493.147430 1568.980225,497.634308 
	C1559.127808,500.977753 1549.448608,504.853424 1539.784424,508.722565 
	C1531.013794,512.234070 1522.523926,516.500244 1513.628418,519.633057 
	C1501.799194,523.799072 1490.915771,529.765442 1479.887329,535.550171 
	C1468.464478,541.541809 1456.697388,546.887634 1445.371948,553.050781 
	C1437.271973,557.458679 1429.686768,562.805359 1421.808350,567.629272 
	C1413.868774,572.490601 1405.721558,577.023560 1397.901123,582.066101 
	C1388.956421,587.833618 1380.315918,594.070435 1371.458862,599.976929 
	C1365.193604,604.155029 1358.576904,607.832642 1352.497314,612.256409 
	C1344.380737,618.162231 1336.648926,624.595215 1328.719482,630.760132 
	C1325.108887,633.567322 1321.396973,636.243652 1317.777954,639.040100 
	C1315.909912,640.483643 1314.144897,642.060486 1312.026367,643.834167 
	C1314.179443,637.507690 1316.283813,631.384644 1318.346558,625.247681 
	C1320.584961,618.587891 1322.791382,611.917236 1324.997314,605.246582 
	C1325.703003,603.112427 1326.361084,600.962341 1327.043213,598.820374 
	C1331.965210,583.365356 1337.207031,568.003052 1341.712524,552.427673 
	C1345.559326,539.129272 1348.964355,525.672119 1351.838867,512.131042 
	C1355.904175,492.979340 1359.646973,473.743469 1362.867065,454.433411 
	C1365.145508,440.770111 1366.591675,426.949615 1367.920288,413.152161 
	C1368.992676,402.015839 1369.622559,390.817230 1369.936401,379.631897 
	C1370.495117,359.718109 1371.035645,339.790680 1370.887695,319.874146 
	C1370.760010,302.691010 1370.222290,285.469269 1368.817017,268.350708 
	C1367.728516,255.093155 1365.085693,241.958176 1363.010864,228.788086 
	C1361.093506,216.617355 1359.558228,204.348816 1356.840698,192.353073 
	C1354.432983,181.725723 1350.869019,171.333878 1347.377686,160.985779 
	C1343.805054,150.397324 1340.518188,139.586426 1335.612549,129.607147 
	C1330.017578,118.225754 1323.189209,107.376114 1316.112305,96.821426 
	C1310.490234,88.436211 1304.255127,80.292412 1297.245483,73.055382 
	C1290.430908,66.019615 1282.638428,59.775482 1274.632935,54.087952 
	C1264.656006,47.000019 1254.387573,40.136440 1243.561890,34.484554 
	C1233.804932,29.390694 1223.253174,25.698641 1212.819092,22.055422 
	C1202.057373,18.297791 1191.158447,14.703588 1180.056030,12.212376 
	C1167.738525,9.448562 1155.121582,8.022012 1142.637695,5.996819 
	C1133.867310,4.574042 1125.101318,3.123882 1116.666748,1.342974 
	C1427.590698,1.000000 1738.181274,1.000000 2049.000000,1.000000 
	C2049.000000,286.020844 2049.000000,571.041748 2049.000000,856.531311 
z"/>
<path fill="#000000" opacity="1.000000" stroke="none" 
	d="
M932.531372,0.999995 
	C932.535034,1.657267 932.129517,2.833821 931.596436,2.894802 
	C921.850708,4.009586 912.059570,4.766063 902.341980,6.073942 
	C895.126770,7.045034 887.972046,8.550645 880.845764,10.076667 
	C870.602722,12.270093 860.191040,14.015454 850.251770,17.201126 
	C838.087952,21.099800 826.080017,25.729919 814.481445,31.077864 
	C802.880005,36.427155 791.658569,42.703465 780.679993,49.259258 
	C774.859619,52.734863 769.459106,57.218746 764.660034,62.035549 
	C754.882507,71.849281 744.903198,81.621231 736.408813,92.504463 
	C729.450928,101.419266 724.392090,111.844185 718.749084,121.746521 
	C715.574585,127.317200 712.519104,133.023270 710.131226,138.958511 
	C706.734985,147.400070 703.471069,155.964798 701.098206,164.733322 
	C696.387939,182.139648 691.647766,199.589096 688.199646,217.270248 
	C685.213440,232.582596 683.630432,248.204208 682.112366,263.756012 
	C680.880615,276.375702 680.385254,289.087524 680.062256,301.771210 
	C679.504272,323.677856 678.726440,345.607330 679.193237,367.502655 
	C679.563538,384.871399 681.332703,402.236206 683.083191,419.541809 
	C684.622620,434.761017 686.628662,449.956512 689.114807,465.049469 
	C691.293335,478.274689 694.330444,491.363342 697.164551,504.474243 
	C699.648376,515.964355 702.377869,527.401306 704.996887,538.862183 
	C706.000122,543.252380 706.997925,547.643799 707.662231,552.604614 
	C698.079407,560.419556 688.465149,567.253845 679.727051,575.067932 
	C674.706543,579.557556 671.106140,585.635254 666.866455,590.998047 
	C661.369385,587.620056 655.878052,584.232666 650.373779,580.866516 
	C643.527344,576.679565 636.681458,572.491516 629.814575,568.338318 
	C622.326355,563.809326 614.963989,559.043884 607.278259,554.876587 
	C595.243164,548.351074 582.972412,542.260864 570.822205,535.946411 
	C565.819580,533.346619 560.949280,530.480774 555.878235,528.026428 
	C548.711609,524.557800 541.507202,521.134766 534.154175,518.090454 
	C518.480164,511.601044 502.817078,505.054077 486.925079,499.133087 
	C475.079590,494.719757 462.938904,491.062378 450.824921,487.416443 
	C438.824799,483.804779 426.766357,480.332550 414.599670,477.343811 
	C401.904175,474.225220 389.104858,471.453827 376.248932,469.083984 
	C361.719513,466.405670 347.149719,463.492126 332.464325,462.229034 
	C314.198944,460.658051 295.772797,459.795471 277.462921,460.306122 
	C265.061035,460.651978 252.795425,464.443939 240.368179,465.692017 
	C225.475906,467.187683 211.870483,472.688599 198.358292,478.223236 
	C189.449448,481.872284 181.058731,487.084930 173.007935,492.454865 
	C162.876358,499.212677 153.055923,506.513000 143.637512,514.233459 
	C138.520340,518.428101 134.425003,523.900757 130.033798,528.940674 
	C125.692810,533.923035 121.378624,538.948792 117.381042,544.205200 
	C112.399895,550.754944 107.477341,557.382324 103.037231,564.302002 
	C97.803329,572.458679 92.696625,580.751038 88.287247,589.369629 
	C82.149139,601.367249 76.664192,613.701233 70.987793,625.932068 
	C67.484238,633.481201 64.216179,641.139648 60.702572,648.683899 
	C58.802135,652.764587 60.343998,654.517517 64.300476,655.781006 
	C78.708916,660.381958 91.736320,667.479492 103.180595,677.507874 
	C109.819641,683.325562 117.771919,687.895203 123.478981,694.463745 
	C130.963715,703.078247 138.919861,711.730225 142.956985,722.796448 
	C145.254303,729.093689 148.004456,735.470032 148.794266,742.022522 
	C150.500397,756.176880 140.216141,767.582947 129.210052,773.818420 
	C122.970169,777.353638 116.347122,780.535217 109.513451,782.620117 
	C100.440811,785.388184 91.054008,787.282959 81.686707,788.872375 
	C75.714134,789.885681 69.473145,790.362549 63.457184,789.850403 
	C51.948730,788.870667 40.504673,787.087097 29.055944,785.480042 
	C25.236570,784.943848 21.484547,783.927856 16.894764,782.961243 
	C14.274812,794.488586 11.327236,806.023193 9.089554,817.693970 
	C6.707431,830.117981 5.015423,842.673828 2.955287,855.161133 
	C2.809597,856.044312 2.113645,856.836609 1.336779,857.335571 
	C1.000000,571.736450 1.000000,286.472931 1.000000,1.000000 
	C311.354187,1.000000 621.708435,1.000000 932.531372,0.999995 
z"/>
<path fill="#000000" opacity="1.000000" stroke="none" 
	d="
M0.999990,934.468628 
	C1.664734,934.626404 2.812138,935.177795 2.922924,935.890320 
	C5.108173,949.945740 7.954017,963.910156 13.191113,977.111267 
	C18.281212,989.941711 23.636944,1002.746826 32.248791,1013.873596 
	C38.325676,1021.725098 43.339691,1030.438477 49.759632,1037.973511 
	C55.492203,1044.702026 62.377613,1050.480103 68.979538,1056.427612 
	C76.655205,1063.342285 84.251625,1070.415527 92.485870,1076.618774 
	C100.065887,1082.329224 108.411598,1087.032715 116.484520,1092.076538 
	C123.337822,1096.358276 130.090698,1100.860352 137.235855,1104.600464 
	C146.428757,1109.412476 155.944977,1113.612671 165.366165,1117.980957 
	C175.214828,1122.547607 184.960159,1127.393188 195.036499,1131.397461 
	C205.908142,1135.717896 217.128860,1139.154541 228.163574,1143.071777 
	C236.791992,1146.134888 245.249649,1149.734619 253.995285,1152.399902 
	C268.746582,1156.895386 283.667297,1160.834595 298.513763,1165.018311 
	C303.169830,1166.330322 307.753296,1167.986694 312.479492,1168.946167 
	C324.845490,1171.456787 337.247345,1173.811401 349.680359,1175.965820 
	C365.841125,1178.766479 382.014252,1181.531372 398.244690,1183.878906 
	C406.512238,1185.074585 414.909546,1185.434082 423.260895,1185.976807 
	C439.861816,1187.055786 456.459564,1188.372070 473.080597,1188.908325 
	C494.992981,1189.615479 516.925720,1189.776245 538.851440,1189.937134 
	C546.047119,1189.989990 553.248169,1189.311646 561.928772,1188.896851 
	C554.718994,1193.463013 548.641846,1197.145752 542.742737,1201.094604 
	C536.819397,1205.059448 530.979004,1209.163086 525.271545,1213.432251 
	C516.360901,1220.097290 507.532959,1226.876953 498.780121,1233.748169 
	C488.761200,1241.613525 478.812256,1249.570068 468.927887,1257.603760 
	C460.890167,1264.136475 452.932526,1270.771362 445.058014,1277.499756 
	C440.992035,1280.973999 437.091461,1284.656250 433.277496,1288.408447 
	C423.484528,1298.042480 413.641022,1307.631836 404.083954,1317.496948 
	C395.195099,1326.672363 386.651398,1336.182129 377.952667,1345.541748 
	C373.506836,1350.325562 368.873352,1354.949829 364.654572,1359.925781 
	C360.225861,1365.149536 356.165161,1370.687256 351.991272,1376.124390 
	C345.112427,1385.085083 338.168823,1393.999146 331.461182,1403.086792 
	C328.376740,1407.265625 325.873627,1411.868408 322.955017,1416.176025 
	C314.843933,1428.147339 306.132874,1439.747925 298.624756,1452.083008 
	C289.091827,1467.744385 280.103729,1483.773682 271.655701,1500.046631 
	C265.768311,1511.387085 260.814270,1523.258423 256.124054,1535.160767 
	C251.731003,1546.309448 247.499054,1557.623657 244.545700,1569.209106 
	C241.512192,1581.109009 239.578232,1593.362915 238.151260,1605.577393 
	C236.777145,1617.339355 235.612061,1629.307739 236.268707,1641.078613 
	C237.077820,1655.582764 237.759079,1670.283203 243.484924,1684.149536 
	C246.040710,1690.339233 246.733688,1697.284668 249.146774,1703.550293 
	C251.544128,1709.774902 254.927994,1715.636108 258.080688,1721.549316 
	C262.293793,1729.451172 266.368469,1737.458374 271.123718,1745.030273 
	C275.407501,1751.851440 280.175934,1758.442871 285.357117,1764.609131 
	C294.672516,1775.695435 304.222046,1786.608521 314.134674,1797.160767 
	C320.008636,1803.413574 326.748657,1808.855347 333.129883,1814.627930 
	C339.678772,1820.552368 346.244049,1826.459229 352.846619,1832.323730 
	C355.048370,1834.279419 357.387848,1836.080200 360.124329,1838.329834 
	C364.281281,1833.524292 368.094055,1828.325928 372.701996,1823.968140 
	C380.286560,1816.795410 387.951630,1809.563965 396.394257,1803.484131 
	C404.326172,1797.772217 413.045654,1792.966553 421.891602,1788.755859 
	C434.700348,1782.659180 448.284760,1778.790894 462.666626,1779.044434 
	C474.008606,1779.244263 484.371796,1782.896606 490.096832,1793.026733 
	C494.039276,1800.002808 495.771576,1808.322388 497.869141,1816.207153 
	C498.948639,1820.265137 499.013977,1824.691406 498.937073,1828.940430 
	C498.679840,1843.154419 497.114838,1857.112671 492.775421,1870.845093 
	C487.941071,1886.143799 481.479797,1900.542236 472.515991,1913.771362 
	C470.005127,1917.477051 470.938080,1919.099976 474.307373,1921.103271 
	C480.227020,1924.622559 485.752747,1928.829956 491.777191,1932.142090 
	C502.730865,1938.164307 513.881287,1943.836426 525.042908,1949.469727 
	C531.754211,1952.856812 538.559509,1956.087280 545.471558,1959.039307 
	C553.698486,1962.552979 561.922119,1966.218506 570.444092,1968.860840 
	C580.870056,1972.093750 591.613892,1974.295166 602.199646,1977.022705 
	C606.052368,1978.015381 609.845825,1979.238525 613.333130,1980.678223 
	C409.053772,1981.000000 205.107559,1981.000000 1.000000,1981.000000 
	C1.000000,1632.312500 1.000000,1283.624878 0.999990,934.468628 
z"/>
<path fill="#000000" opacity="1.000000" stroke="none" 
	d="
M1568.077881,1190.057373 
	C1584.003540,1189.037109 1599.942871,1188.192383 1615.850586,1186.942993 
	C1629.554199,1185.866821 1643.278198,1184.744263 1656.890503,1182.888550 
	C1672.966919,1180.697021 1688.990234,1177.996460 1704.930298,1174.958862 
	C1720.309448,1172.028076 1735.613281,1168.638306 1750.837402,1164.979980 
	C1763.179810,1162.014282 1775.445923,1158.647827 1787.577148,1154.911621 
	C1798.909790,1151.421387 1810.046753,1147.284302 1821.220703,1143.293823 
	C1830.750488,1139.890625 1840.251221,1136.397095 1849.690186,1132.750366 
	C1859.641968,1128.905396 1869.645874,1125.144165 1879.367554,1120.769775 
	C1889.021606,1116.425659 1898.432861,1111.515137 1907.800903,1106.569702 
	C1915.632812,1102.435181 1923.392334,1098.123657 1930.919312,1093.463135 
	C1938.358643,1088.856812 1945.483154,1083.739502 1952.713867,1078.799438 
	C1958.920166,1074.559448 1965.256958,1070.481445 1971.206055,1065.902832 
	C1975.843262,1062.333862 1980.154175,1058.286011 1984.287842,1054.130493 
	C1991.257935,1047.123413 1998.547241,1040.315674 2004.643921,1032.589111 
	C2011.676758,1023.676086 2017.776123,1013.994324 2023.897705,1004.401917 
	C2033.504395,989.348022 2038.684937,972.403625 2043.682495,955.470642 
	C2045.414062,949.603577 2045.893066,943.370850 2047.037476,937.322754 
	C2047.234253,936.282837 2047.899780,935.331604 2048.674316,934.669739 
	C2049.000000,1283.574707 2049.000000,1632.149292 2049.000000,1981.000000 
	C1845.312500,1981.000000 1641.624878,1981.000000 1437.468628,1981.000000 
	C1437.458496,1980.340576 1437.812256,1979.221436 1438.390991,1979.089722 
	C1450.657227,1976.296387 1463.219604,1974.466797 1475.160278,1970.673828 
	C1487.492432,1966.756470 1499.325806,1961.178223 1511.188354,1955.901489 
	C1520.845581,1951.605591 1530.372803,1946.959717 1539.680786,1941.953735 
	C1548.008667,1937.475098 1555.928711,1932.242798 1564.087646,1927.443115 
	C1567.932129,1925.181519 1571.911133,1923.148438 1575.835449,1921.023193 
	C1578.940796,1919.341309 1579.751709,1917.713989 1577.747559,1913.999756 
	C1571.026733,1901.545410 1563.689087,1889.200195 1558.957153,1875.966064 
	C1555.041138,1865.013794 1551.143433,1853.554932 1551.910522,1841.318848 
	C1552.390015,1833.668091 1551.651123,1825.943481 1552.075195,1818.286133 
	C1552.863647,1804.050781 1557.592407,1791.232666 1569.956055,1783.244385 
	C1577.320923,1778.486084 1586.569214,1777.750488 1595.161987,1779.278931 
	C1605.580688,1781.132080 1615.837646,1784.096802 1625.986450,1787.168945 
	C1630.182007,1788.439087 1634.068481,1790.996216 1637.827637,1793.388916 
	C1646.313477,1798.790405 1655.067993,1803.910522 1662.886353,1810.177002 
	C1669.569092,1815.532959 1675.131714,1822.295532 1681.126465,1828.497070 
	C1684.058472,1831.530273 1686.845825,1834.703247 1690.309204,1838.478516 
	C1696.597656,1832.761597 1703.029541,1826.890015 1709.488892,1821.048828 
	C1715.999146,1815.161621 1722.727295,1809.500000 1729.009644,1803.380127 
	C1735.371826,1797.182495 1741.327271,1790.565796 1747.419067,1784.093140 
	C1751.806641,1779.431274 1756.427368,1774.944214 1760.396973,1769.944702 
	C1765.241455,1763.843872 1769.535156,1757.303833 1774.023560,1750.923096 
	C1776.442993,1747.483643 1779.031982,1744.127319 1781.092163,1740.478027 
	C1786.850708,1730.278198 1793.443726,1720.369141 1797.726074,1709.560303 
	C1803.433350,1695.154541 1808.974731,1680.284668 1811.439453,1665.103027 
	C1813.969604,1649.519531 1815.806763,1633.440796 1813.102295,1617.373535 
	C1811.291870,1606.617920 1811.205200,1595.519653 1808.780029,1584.933594 
	C1805.703979,1571.506104 1801.650879,1558.217529 1796.895020,1545.282349 
	C1791.724487,1531.218750 1785.579834,1517.483032 1779.271362,1503.877319 
	C1773.812256,1492.103882 1767.938477,1480.478027 1761.491211,1469.220215 
	C1755.390625,1458.567993 1748.317627,1448.471924 1741.650513,1438.145264 
	C1734.319702,1426.790527 1727.103394,1415.358276 1719.565063,1404.142578 
	C1715.226562,1397.687622 1710.450684,1391.516357 1705.689331,1385.358154 
	C1699.277710,1377.065796 1692.823120,1368.798950 1686.129761,1360.734863 
	C1682.069824,1355.843506 1677.571045,1351.310669 1673.186768,1346.695190 
	C1656.476562,1329.103638 1639.845337,1311.434204 1622.926880,1294.044556 
	C1618.349854,1289.340088 1612.771240,1285.625488 1607.820923,1281.265137 
	C1600.652222,1274.950439 1593.812622,1268.253052 1586.506714,1262.106201 
	C1579.310913,1256.052246 1571.608276,1250.604370 1564.316895,1244.659180 
	C1558.383057,1239.820801 1552.760742,1234.602051 1546.919800,1229.646851 
	C1545.872803,1228.758545 1544.434326,1228.331665 1543.156250,1227.037598 
	C1546.761353,1222.089478 1550.816895,1218.082397 1553.914551,1213.436768 
	C1558.964600,1205.862915 1563.389282,1197.872192 1568.077881,1190.057373 
z"/>
<path fill="#000000" opacity="1.000000" stroke="none" 
	d="
M677.468689,1981.000000 
	C677.794678,1980.333618 678.492615,1979.296753 679.399414,1979.060181 
	C686.096985,1977.313110 692.870972,1975.854858 699.555664,1974.062378 
	C717.369263,1969.285522 733.786987,1961.209961 749.593872,1951.953613 
	C758.420654,1946.784668 766.857971,1940.898193 775.169556,1934.916748 
	C783.263428,1929.091553 791.223755,1923.023560 798.775085,1916.519409 
	C805.210510,1910.976807 810.953430,1904.634033 817.055298,1898.699341 
	C822.221313,1893.674561 827.652344,1888.908203 832.621704,1883.698853 
	C838.570190,1877.462891 844.255615,1870.965942 849.866638,1864.420532 
	C856.178284,1857.057861 862.400879,1849.611450 868.440247,1842.024780 
	C875.253113,1833.466553 881.814026,1824.707642 888.493896,1816.043213 
	C893.232483,1809.897217 898.235352,1803.936401 902.664062,1797.575439 
	C907.083191,1791.228271 910.873169,1784.446289 915.051147,1777.926880 
	C919.137085,1771.551270 923.659912,1765.438477 927.467407,1758.905273 
	C935.168701,1745.691040 942.594482,1732.313965 949.979126,1718.918579 
	C954.351685,1710.987061 958.802979,1703.063232 962.555054,1694.833496 
	C968.985107,1680.729980 974.925110,1666.402100 981.013062,1652.143921 
	C985.719788,1641.120605 990.691833,1630.192139 994.898987,1618.978760 
	C999.343323,1607.133057 1003.023438,1595.000488 1007.033020,1582.991943 
	C1009.372375,1575.985474 1011.836914,1569.017212 1014.006531,1561.958496 
	C1017.452454,1550.747559 1020.696289,1539.474731 1024.039673,1528.232178 
	C1024.164062,1527.813599 1024.436279,1527.438843 1025.159424,1526.033447 
	C1026.734131,1531.899658 1027.871948,1536.942627 1029.445190,1541.845703 
	C1033.816895,1555.468994 1038.241821,1569.077881 1042.884521,1582.610596 
	C1048.139893,1597.929321 1053.537231,1613.202026 1059.097290,1628.412598 
	C1062.881714,1638.765503 1066.981567,1649.005371 1071.084473,1659.238037 
	C1072.695801,1663.256714 1074.631104,1667.151733 1076.538452,1671.044312 
	C1081.402466,1680.971069 1086.300781,1690.881348 1091.247681,1700.767090 
	C1096.121826,1710.507324 1100.802246,1720.358276 1106.057007,1729.890991 
	C1112.952393,1742.400269 1120.225220,1754.706055 1127.533691,1766.981567 
	C1131.894165,1774.305420 1136.350952,1781.603516 1141.272949,1788.553223 
	C1147.556030,1797.424561 1154.435181,1805.871094 1160.898804,1814.618042 
	C1165.412109,1820.725830 1169.359253,1827.270020 1174.093384,1833.192383 
	C1181.620728,1842.609619 1189.619019,1851.649170 1197.368774,1860.889771 
	C1202.107056,1866.539429 1206.438721,1872.566650 1211.515747,1877.887329 
	C1218.802856,1885.524048 1226.610107,1892.664062 1234.182495,1900.029297 
	C1239.415283,1905.118896 1244.450684,1910.428223 1249.895386,1915.278687 
	C1255.643921,1920.399780 1261.634766,1925.276367 1267.771606,1929.927246 
	C1275.682495,1935.922607 1283.568848,1942.028442 1291.974731,1947.270264 
	C1300.176514,1952.384644 1308.965088,1956.577393 1317.600220,1960.970215 
	C1323.015381,1963.725098 1328.475708,1966.513916 1334.179321,1968.549194 
	C1342.150024,1971.393677 1350.359009,1973.574951 1358.480347,1975.991333 
	C1363.528564,1977.493530 1368.603516,1978.905762 1373.333252,1980.679199 
	C1141.312500,1981.000000 909.624878,1981.000000 677.468689,1981.000000 
z"/>
<path fill="#000000" opacity="1.000000" stroke="none" 
	d="
M1091.531372,1.000000 
	C1092.201294,13.693980 1092.242920,26.289822 1087.335571,38.436249 
	C1082.852905,49.531509 1079.811279,61.259121 1074.725464,72.043541 
	C1071.100830,79.729469 1064.992065,86.216324 1060.263306,93.416473 
	C1055.072021,101.320839 1047.949097,107.009850 1039.886841,111.523651 
	C1028.951904,117.645828 1018.132690,117.008820 1007.602905,110.126778 
	C995.232178,102.041527 985.822632,91.280479 979.100342,78.251701 
	C974.028992,68.422585 968.511414,58.637009 965.052124,48.214771 
	C961.519653,37.571972 960.106995,26.203337 958.074585,15.096042 
	C957.282898,10.769229 957.333252,6.288353 957.000000,1.438828 
	C1001.687561,1.000000 1046.375122,1.000000 1091.531372,1.000000 
z"/>
<path fill="#FFCC4D" opacity="1.000000" stroke="none" 
	d="
M1118.807251,827.846741 
	C1138.088745,837.123169 1156.414185,847.920532 1172.766724,861.842041 
	C1175.301636,864.000244 1177.744995,866.265991 1180.746582,868.907288 
	C1199.756836,886.435608 1215.369385,905.865662 1227.007324,928.205200 
	C1233.049683,939.803467 1237.789062,952.080383 1243.117065,964.050781 
	C1248.851074,981.677917 1252.812500,999.689514 1254.441040,1018.161743 
	C1255.025024,1024.785889 1255.018799,1031.462036 1255.306030,1039.045166 
	C1254.890869,1046.084229 1254.421265,1052.190552 1254.018555,1058.301147 
	C1252.793091,1076.897095 1249.379150,1095.114014 1242.913696,1112.560791 
	C1238.202759,1125.273315 1232.277466,1137.535889 1226.893433,1149.999023 
	C1215.045288,1170.482666 1200.661987,1189.015625 1183.563965,1206.148682 
	C1181.964600,1207.426392 1180.701172,1208.248779 1179.604004,1209.252686 
	C1163.013428,1224.434448 1144.642822,1237.118652 1124.166626,1246.303223 
	C1110.727661,1252.331299 1096.566406,1256.748779 1082.728638,1261.887451 
	C1067.985962,1264.073853 1053.266846,1266.443604 1038.488525,1268.354370 
	C1032.758667,1269.095337 1026.894653,1268.797974 1020.171753,1268.958008 
	C1009.009705,1267.955811 998.718994,1267.319824 988.535889,1265.907715 
	C969.256592,1263.234375 950.699463,1257.839966 933.008240,1249.658813 
	C925.016418,1245.962891 917.127991,1242.043457 909.192627,1238.225342 
	C898.960144,1230.923462 888.628296,1223.755249 878.540405,1216.258911 
	C874.035828,1212.911377 870.021362,1208.904419 865.323792,1204.741089 
	C849.271545,1188.854126 835.236206,1172.076416 825.119507,1152.596924 
	C817.551086,1138.024048 811.657959,1122.580933 805.018921,1107.525391 
	C802.520325,1097.385620 799.664734,1087.316284 797.643860,1077.082275 
	C796.203369,1069.787231 795.885315,1062.270508 795.042847,1053.997559 
	C794.681213,1047.703613 794.107422,1042.266357 794.078979,1036.826172 
	C794.055725,1032.383179 794.527100,1027.918091 795.055115,1023.495789 
	C796.187988,1014.008057 797.169983,1004.484375 798.806580,995.078552 
	C802.074768,976.294495 808.603760,958.493591 816.001099,940.993835 
	C824.750000,923.715942 834.772461,907.244446 847.339294,891.644043 
	C857.904663,881.101562 867.611450,870.521973 878.342712,861.110535 
	C896.651001,845.053833 917.891541,833.572632 940.220520,824.063477 
	C960.966492,816.506226 982.217407,811.089844 1005.125122,808.930298 
	C1020.014771,809.249695 1034.028076,809.474426 1048.031006,809.985840 
	C1065.704224,810.631226 1082.627441,814.994812 1099.210815,820.859985 
	C1105.748779,823.172424 1112.275391,825.516846 1118.807251,827.846741 
z"/>
<path fill="#EA596E" opacity="1.000000" stroke="none" 
	d="
M1568.029297,1189.660645 
	C1563.389282,1197.872192 1558.964600,1205.862915 1553.914551,1213.436768 
	C1550.816895,1218.082397 1546.761353,1222.089478 1542.994385,1226.709595 
	C1541.156738,1227.935669 1539.209106,1228.548096 1537.802734,1229.779053 
	C1519.472656,1245.821899 1498.148315,1255.064941 1474.041504,1257.946655 
	C1447.443970,1261.125977 1422.909058,1254.830200 1400.369263,1240.840820 
	C1376.403931,1225.966675 1360.418091,1204.677124 1351.396606,1177.250244 
	C1349.759399,1169.351807 1348.426514,1162.111694 1346.966919,1154.897339 
	C1344.484985,1142.631104 1346.191162,1130.491211 1348.875854,1118.608765 
	C1353.346313,1098.822998 1362.582275,1081.280762 1376.046143,1066.032104 
	C1390.389282,1050.897095 1407.140259,1039.362793 1427.239746,1033.466919 
	C1467.625854,1021.620483 1504.477417,1029.008301 1536.564575,1056.188354 
	C1564.710938,1080.030273 1577.899048,1111.333740 1576.533081,1148.003296 
	C1576.077148,1160.240601 1571.790527,1172.336792 1569.229614,1184.492188 
	C1568.890991,1186.099121 1568.400879,1187.674072 1568.029297,1189.660645 
z"/>
<path fill="#EA596E" opacity="1.000000" stroke="none" 
	d="
M666.889893,591.368286 
	C671.106140,585.635254 674.706543,579.557556 679.727051,575.067932 
	C688.465149,567.253845 698.079407,560.419556 707.652161,553.029541 
	C709.859558,552.347656 711.863647,552.067505 713.604980,551.236694 
	C765.754944,526.356567 828.800720,541.984131 861.374084,592.419678 
	C872.650574,609.879822 878.732422,629.112366 879.211914,650.312317 
	C879.671326,670.625854 875.822815,689.639709 866.617920,708.328003 
	C865.442810,710.309753 864.579895,711.731140 863.707214,713.146423 
	C842.185364,748.051392 810.589600,766.391113 770.084229,770.078918 
	C751.402893,770.186951 733.228577,767.440125 716.294495,759.234802 
	C680.127197,741.710205 658.328918,713.113342 650.903564,673.531982 
	C645.687622,645.728027 651.993103,620.172241 665.418213,595.890625 
	C666.120972,594.619629 666.424072,593.127563 666.889893,591.368286 
z"/>
<path fill="#EA596E" opacity="1.000000" stroke="none" 
	d="
M989.999939,1408.026367 
	C1001.085083,1419.645508 1011.066833,1432.047241 1017.402039,1446.998901 
	C1034.226807,1486.706177 1029.530273,1533.398071 999.399170,1568.205566 
	C978.810730,1591.989380 952.740234,1605.297974 921.426331,1608.048706 
	C890.242859,1610.788086 862.614441,1601.566650 838.502563,1581.960327 
	C817.284546,1564.707153 804.000183,1542.290405 799.020508,1515.502197 
	C792.119324,1478.376953 801.066589,1445.107666 826.023804,1416.588745 
	C839.924011,1400.704956 857.206177,1389.701904 878.114258,1383.209717 
	C889.527100,1381.330811 900.268616,1379.712769 911.219971,1378.279785 
	C912.282471,1378.355591 913.135132,1378.246338 914.433594,1378.139893 
	C919.800354,1378.756104 924.713806,1379.439209 929.643738,1379.969604 
	C943.846191,1381.497559 957.026917,1386.194092 969.170776,1393.498291 
	C976.408386,1397.851440 983.076050,1403.151855 989.999939,1408.026367 
z"/>
<path fill="#EA596E" opacity="1.000000" stroke="none" 
	d="
M1311.689209,1409.393921 
	C1314.994751,1409.593262 1318.302490,1409.995117 1321.605469,1409.959839 
	C1347.376343,1409.684692 1370.046509,1418.607910 1389.718628,1434.532104 
	C1420.711548,1459.620728 1435.346680,1492.771973 1432.752686,1532.433594 
	C1429.142334,1587.635864 1387.846802,1630.147339 1336.069092,1638.119019 
	C1295.463623,1644.370605 1261.059448,1631.726318 1233.144653,1602.298096 
	C1213.800781,1581.905396 1203.893311,1556.976440 1202.906616,1528.668579 
	C1202.194702,1508.245850 1206.536621,1489.024536 1216.296265,1470.330322 
	C1220.636230,1463.655884 1224.196045,1457.191406 1228.802490,1451.587036 
	C1250.238525,1425.507324 1278.212036,1411.971069 1311.689209,1409.393921 
z"/>
<path fill="#EA596E" opacity="1.000000" stroke="none" 
	d="
M783.177551,1255.869995 
	C784.407959,1284.041870 777.032349,1309.676147 759.662415,1331.978149 
	C736.906616,1361.195435 706.816040,1376.585083 669.693420,1377.069824 
	C614.127747,1377.795654 566.725159,1339.613525 555.392761,1285.547607 
	C542.279663,1222.986206 583.205200,1161.326416 646.023743,1149.084229 
	C670.829468,1144.250000 694.682312,1147.471680 717.631287,1157.901245 
	C718.682678,1158.379028 719.798950,1158.714233 721.400391,1159.385010 
	C723.134949,1160.496704 724.309509,1161.414307 725.580017,1162.170532 
	C761.152344,1183.343140 779.750610,1214.941650 783.177551,1255.869995 
z"/>
<path fill="#EA596E" opacity="1.000000" stroke="none" 
	d="
M591.092041,1008.998962 
	C581.288330,1018.295837 571.057251,1026.948853 558.873291,1033.147827 
	C512.495789,1056.743408 458.669769,1047.796265 422.597107,1010.321106 
	C381.270142,967.387451 379.808411,899.561462 419.449402,854.936096 
	C445.647644,825.443604 479.113983,811.981445 517.825317,816.554016 
	C566.541565,822.308350 599.376221,849.827209 615.871216,897.136475 
	C619.984192,914.576355 622.078308,931.304688 619.234741,948.665039 
	C616.156921,967.455322 608.985535,984.191040 598.011108,999.508972 
	C595.731201,1002.691223 593.399780,1005.836609 591.092041,1008.998962 
z"/>
<path fill="#FFFFFF" opacity="1.000000" stroke="none" 
	d="
M1311.746826,1409.072998 
	C1278.212036,1411.971069 1250.238525,1425.507324 1228.802490,1451.587036 
	C1224.196045,1457.191406 1220.636230,1463.655884 1216.370605,1469.988037 
	C1212.156250,1464.567993 1207.943359,1459.025757 1204.210083,1453.177490 
	C1176.335205,1409.510254 1148.539307,1365.792725 1120.752563,1322.069214 
	C1108.155029,1302.246582 1095.635010,1282.374512 1082.904297,1262.206299 
	C1096.566406,1256.748779 1110.727661,1252.331299 1124.166626,1246.303223 
	C1144.642822,1237.118652 1163.013428,1224.434448 1179.604004,1209.252686 
	C1180.701172,1208.248779 1181.964600,1207.426392 1183.516846,1206.464844 
	C1211.381470,1249.639404 1238.873901,1292.872559 1266.380615,1336.096802 
	C1281.027344,1359.112793 1295.706787,1382.107788 1310.332397,1405.137085 
	C1311.018677,1406.217896 1311.322510,1407.541504 1311.746826,1409.072998 
z"/>
<path fill="#FFFEFF" opacity="1.000000" stroke="none" 
	d="
M591.483765,1009.015442 
	C593.399780,1005.836609 595.731201,1002.691223 598.011108,999.508972 
	C608.985535,984.191040 616.156921,967.455322 619.234741,948.665039 
	C622.078308,931.304688 619.984192,914.576355 616.123535,897.400757 
	C630.039246,899.994568 643.949707,902.930603 657.833313,905.988159 
	C709.178711,917.295776 760.515442,928.642883 811.854126,939.980591 
	C812.990051,940.231445 814.111633,940.546997 815.620483,940.913086 
	C808.603760,958.493591 802.074768,976.294495 798.806580,995.078552 
	C797.169983,1004.484375 796.187988,1014.008057 795.055115,1023.495789 
	C794.527100,1027.918091 794.055725,1032.383179 794.078979,1036.826172 
	C794.107422,1042.266357 794.681213,1047.703613 794.984863,1053.573242 
	C770.756775,1048.691162 746.554199,1043.418091 722.371399,1038.055908 
	C678.866516,1028.409424 635.373474,1018.709534 591.483765,1009.015442 
z"/>
<path fill="#FFFFFE" opacity="1.000000" stroke="none" 
	d="
M990.011841,1407.625732 
	C983.076050,1403.151855 976.408386,1397.851440 969.170776,1393.498291 
	C957.026917,1386.194092 943.846191,1381.497559 929.643738,1379.969604 
	C924.713806,1379.439209 919.800354,1378.756104 914.229492,1377.950928 
	C912.723145,1377.870972 911.866638,1377.982910 911.010132,1378.094727 
	C900.268616,1379.712769 889.527100,1381.330811 878.392761,1382.982056 
	C879.872803,1373.591675 881.575500,1364.130249 883.648376,1354.750732 
	C891.958008,1317.151611 900.384338,1279.578247 908.752930,1241.992065 
	C908.968567,1241.023804 909.015991,1240.018188 909.167236,1238.627686 
	C917.127991,1242.043457 925.016418,1245.962891 933.008240,1249.658813 
	C950.699463,1257.839966 969.256592,1263.234375 988.535889,1265.907715 
	C998.718994,1267.319824 1009.009705,1267.955811 1019.716675,1268.999634 
	C1017.493103,1281.883789 1014.908264,1294.733643 1012.095947,1307.533325 
	C1004.791931,1340.775635 997.387878,1373.995850 990.011841,1407.625732 
z"/>
<path fill="#FFFEFE" opacity="1.000000" stroke="none" 
	d="
M770.189575,770.400391 
	C810.589600,766.391113 842.185364,748.051392 863.707214,713.146423 
	C864.579895,711.731140 865.442810,710.309753 866.609619,708.672974 
	C891.264099,746.766113 915.619080,785.077454 940.097290,823.726135 
	C917.891541,833.572632 896.651001,845.053833 878.342712,861.110535 
	C867.611450,870.521973 857.904663,881.101562 847.430420,891.334839 
	C827.271301,860.394531 807.406799,829.282837 787.573914,798.150940 
	C781.768066,789.037354 776.052124,779.866455 770.189575,770.400391 
z"/>
<path fill="#FFFEFE" opacity="1.000000" stroke="none" 
	d="
M1375.774048,1065.772705 
	C1362.582275,1081.280762 1353.346313,1098.822998 1348.875854,1118.608765 
	C1346.191162,1130.491211 1344.484985,1142.631104 1346.966919,1154.897339 
	C1348.426514,1162.111694 1349.759399,1169.351807 1351.159668,1177.017822 
	C1332.023804,1173.318237 1312.864990,1169.240112 1293.735352,1165.028687 
	C1271.685913,1160.174316 1249.662231,1155.202271 1227.260498,1150.140137 
	C1232.277466,1137.535889 1238.202759,1125.273315 1242.913696,1112.560791 
	C1249.379150,1095.114014 1252.793091,1076.897095 1254.018555,1058.301147 
	C1254.421265,1052.190552 1254.890869,1046.084229 1255.393799,1039.507812 
	C1265.042480,1041.013916 1274.651245,1042.879761 1284.208008,1044.982666 
	C1313.378540,1051.401367 1342.529663,1057.907837 1371.684692,1064.397095 
	C1372.976074,1064.684326 1374.230347,1065.137573 1375.774048,1065.772705 
z"/>
<path fill="#FFFEFE" opacity="1.000000" stroke="none" 
	d="
M783.532837,1255.910278 
	C779.750610,1214.941650 761.152344,1183.343140 725.580017,1162.170532 
	C724.309509,1161.414307 723.134949,1160.496704 721.757446,1159.330322 
	C726.432068,1156.193359 731.357849,1153.527466 736.081848,1150.542358 
	C757.668457,1136.901123 779.195251,1123.165405 800.757996,1109.486328 
	C801.864685,1108.784424 803.106995,1108.296143 804.652588,1107.616943 
	C811.657959,1122.580933 817.551086,1138.024048 825.119507,1152.596924 
	C835.236206,1172.076416 849.271545,1188.854126 865.040649,1204.570923 
	C838.884644,1221.647583 812.553711,1238.442749 786.203186,1255.207153 
	C785.541565,1255.627930 784.664612,1255.710327 783.532837,1255.910278 
z"/>
<path fill="#EA596E" opacity="1.000000" stroke="none" 
	d="
M1060.027466,567.696167 
	C1049.190430,556.755249 1039.736694,544.871582 1032.881226,530.911560 
	C1012.510986,489.430817 1020.463379,436.476532 1052.280884,403.039520 
	C1077.610840,376.420380 1108.777954,363.642151 1145.235840,366.320282 
	C1192.590088,369.798828 1232.994141,400.771667 1246.957764,448.037079 
	C1258.461182,486.974152 1250.846558,522.620728 1225.699951,554.219666 
	C1211.126831,572.532043 1192.094116,584.842224 1168.882568,591.769165 
	C1158.207153,593.665039 1148.263672,595.938354 1138.200439,596.777893 
	C1131.919434,597.301880 1125.454468,595.690796 1119.077637,594.987793 
	C1104.905396,593.425293 1091.930664,588.261780 1079.772949,581.141357 
	C1072.917603,577.126526 1066.591797,572.207703 1060.027466,567.696167 
z"/>
<path fill="#EA596E" opacity="1.000000" stroke="none" 
	d="
M1284.887695,802.091736 
	C1284.547974,777.862671 1290.108521,755.141418 1303.187500,734.648254 
	C1322.415771,704.519958 1349.983643,686.657654 1385.371460,682.035828 
	C1424.357788,676.943970 1457.967529,689.068176 1484.804199,717.674500 
	C1505.957764,740.223145 1515.889648,767.336853 1515.207520,798.717224 
	C1514.566406,828.209900 1504.425659,853.534729 1484.567871,874.671875 
	C1448.579956,912.978455 1393.976196,921.890076 1346.445557,897.697998 
	C1308.778320,876.328430 1289.234375,844.069458 1284.887695,802.091736 
z"/>
<path fill="#FFFFFF" opacity="1.000000" stroke="none" 
	d="
M1059.938232,568.074951 
	C1066.591797,572.207703 1072.917603,577.126526 1079.772949,581.141357 
	C1091.930664,588.261780 1104.905396,593.425293 1119.077637,594.987793 
	C1125.454468,595.690796 1131.919434,597.301880 1138.200439,596.777893 
	C1148.263672,595.938354 1158.207153,593.665039 1168.600586,591.993774 
	C1167.493286,601.987854 1166.530029,612.104065 1164.386841,621.963806 
	C1154.771118,666.198975 1144.814087,710.359985 1134.991821,754.550232 
	C1129.620239,778.716614 1124.271118,802.888000 1118.859619,827.451904 
	C1112.275391,825.516846 1105.748779,823.172424 1099.210815,820.859985 
	C1082.627441,814.994812 1065.704224,810.631226 1048.031006,809.985840 
	C1034.028076,809.474426 1020.014771,809.249695 1005.545776,808.842102 
	C1011.123291,781.497925 1017.155518,754.208069 1023.200256,726.920959 
	C1033.815796,679.000549 1044.395874,631.072144 1055.122803,583.176636 
	C1056.244629,578.167419 1058.252319,573.356567 1059.938232,568.074951 
z"/>
<path fill="#FFFEFE" opacity="1.000000" stroke="none" 
	d="
M1284.545410,802.121216 
	C1289.234375,844.069458 1308.778320,876.328430 1346.113403,897.610474 
	C1343.055298,900.246704 1339.828125,902.839966 1336.357422,905.050964 
	C1305.520508,924.695496 1274.640381,944.272522 1243.445068,963.960083 
	C1237.789062,952.080383 1233.049683,939.803467 1227.007324,928.205200 
	C1215.369385,905.865662 1199.756836,886.435608 1181.015625,869.064148 
	C1181.625610,867.832947 1182.317139,866.611145 1183.362793,865.945068 
	C1216.496948,844.837585 1249.664673,823.783142 1282.833862,802.731201 
	C1283.246826,802.469055 1283.744873,802.341187 1284.545410,802.121216 
z"/>
<path fill="#F296A4" opacity="1.000000" stroke="none" 
	d="
M911.219971,1378.279785 
	C911.866638,1377.982910 912.723145,1377.870972 913.783691,1377.947998 
	C913.135132,1378.246338 912.282471,1378.355591 911.219971,1378.279785 
z"/>
</svg>